# xmcd
#
# Track frame offsets:
#	150
#	18110
#	61742
#	78922
#	103619
#	121399
#	138367
#	172629
#	196083
#	230024
#	245463
#	283037
#	305034
#	323220
#
# Disc length: 4560 seconds
#
# Revision: 1
# Processed by: cddbd v1.5.2PL0 Copyright (c) Steve Scherf et al.
# Submitted via: audiograbber 1.83.01
#
DISCID=b111ce0e
DTITLE=Various Artist - Blue Rose Nuggets 52
DYEAR=2011
DGENRE=
TTITLE0=Israel Nash Gripka - Fool's Gold
TTITLE1=James McMurtry - Choctow Bingo
TTITLE2=Jason Isbell and The 400 Unit - Alabama Pines
TTITLE3=Shakin' Apostels - Tucson
TTITLE4=Deadman - Gilead
TTITLE5=The Resentments - Heart Of Hearts
TTITLE6=Rich Hopkins and The Luminarios - Dirt Town
TTITLE7=Parsons Thibaud - Heavens Above
TTITLE8=Gov't Mule - Play With Fire
TTITLE9=Elliot Murphy (with Olivier Durand) - Been Up These Stairs Before
TTITLE10=Ad Vanderveen - Well Of Wonder
TTITLE11=Carolyn Wonderland - What Good Can Drinkin' Do
TTITLE12=Ben Arnold - Fishin'
TTITLE13=Israel Nash Gripka - Pray For Rain
EXTD=
EXTT0=
EXTT1=
EXTT2=
EXTT3=
EXTT4=
EXTT5=
EXTT6=
EXTT7=
EXTT8=
EXTT9=
EXTT10=
EXTT11=
EXTT12=
EXTT13=
PLAYORDER=
